<svg xmlns="http://www.w3.org/2000/svg" viewBox="0 0 512 512">
  <defs>
    <linearGradient id="grad1" x1="0%" y1="0%" x2="100%" y2="100%">
      <stop offset="0%" style="stop-color:#89b4fa;stop-opacity:1" />
      <stop offset="100%" style="stop-color:#cba6f7;stop-opacity:1" />
    </linearGradient>
  </defs>
  <rect width="512" height="512" rx="100" fill="#1e1e2e" />
  <path d="M128 160c0-35.3 128-64 128-64s128 28.7 128 64-57.3 64-128 64-128-28.7-128-64z" fill="url(#grad1)" opacity="0.8"/>
  <path d="M128 160v192c0 35.3 128 64 128 64s128-28.7 128-64V160" fill="none" stroke="url(#grad1)" stroke-width="40" stroke-linecap="round" stroke-linejoin="round"/>
  <path d="M128 256c0 35.3 128 64 128 64s128-28.7 128-64" fill="none" stroke="url(#grad1)" stroke-width="40" stroke-linecap="round" stroke-linejoin="round" opacity="0.5"/>
  <path d="M256 280l60 60-60 60-60-60z" fill="#f38ba8" />
</svg>